<?xml version="1.0" encoding="utf-8"?>
<svg viewBox="0 0 500 500" width="500" height="500" xmlns="http://www.w3.org/2000/svg">
  <g transform="matrix(1.914813041687012, 0, 0, 1.8965160846710207, 94.341552734375, 6.841683864593513)" style="">
    <rect x="-49.766" y="1.757" width="256" height="256" style="fill: rgb(183, 8, 27);"/>
    <path d="M 4.559 73.599 C 12.657 73.48 19.137 66.841 19.058 58.742 C 18.98 50.644 12.372 44.132 4.273 44.17 C -3.825 44.209 -10.37 50.785 -10.371 58.884 C -10.358 62.82 -8.773 66.587 -5.97 69.35 C -3.167 72.113 0.623 73.642 4.559 73.599 Z" fill="#FFFFFF"/>
    <path d="M -18.785 158.229 C -19.633 161.852 -20.076 165.558 -20.106 169.278 C -20.106 182.232 -13.082 190.833 1.848 190.833 C 14.228 190.833 24.274 183.481 31.493 171.603 L 27.08 189.318 L 51.656 189.318 L 65.715 132.998 C 69.228 118.723 76.027 111.32 86.349 111.32 C 94.469 111.32 99.517 116.368 99.517 124.714 C 99.558 127.389 99.188 130.055 98.422 132.619 L 91.182 158.516 C 90.146 162.082 89.629 165.779 89.646 169.493 C 89.646 181.781 96.886 190.792 112.031 190.792 C 124.984 190.792 135.306 182.457 141.01 162.479 L 131.354 158.741 C 126.52 172.135 122.353 174.552 119.066 174.552 C 115.779 174.552 114.007 172.36 114.007 167.967 C 114.102 165.662 114.47 163.376 115.103 161.158 L 122.138 135.916 C 123.717 130.727 124.531 125.335 124.554 119.911 C 124.554 101.028 113.137 91.178 99.302 91.178 C 86.349 91.178 73.18 102.861 66.596 115.16 L 71.419 93.082 L 33.889 93.082 L 28.616 112.538 L 46.188 112.538 L 35.374 155.792 C 26.875 174.675 11.269 174.982 9.313 174.541 C 6.098 173.814 4.05 172.596 4.05 168.397 C 4.144 164.998 4.66 161.624 5.586 158.352 L 22.052 93.031 L -19.645 93.031 L -24.909 112.487 L -7.572 112.487 L -18.785 158.229 Z" fill="#FFFFFF"/>
  </g>
</svg>